<?xml version="1.0" encoding="UTF-8"?>
<!DOCTYPE svg PUBLIC "-//W3C//DTD SVG 1.1//EN" "http://www.w3.org/Graphics/SVG/1.1/DTD/svg11.dtd">
<!-- Creator: CorelDRAW -->
<svg xmlns="http://www.w3.org/2000/svg" xml:space="preserve" width="602px" height="370px" version="1.1" style="shape-rendering:geometricPrecision; text-rendering:geometricPrecision; image-rendering:optimizeQuality; fill-rule:evenodd; clip-rule:evenodd"
viewBox="0 0 2745.022 1687.123"
 xmlns:xlink="http://www.w3.org/1999/xlink"
 xmlns:xodm="http://www.corel.com/coreldraw/odm/2003">
 <defs>
  <style type="text/css">
   <![CDATA[
    .fil0 {fill:#19A88D}
    .fil1 {fill:#76D1A2}
   ]]>
  </style>
 </defs>
 <g id="Layer_x0020_1">
  <metadata id="CorelCorpID_0Corel-Layer"/>
  <path class="fil0" d="M183.417 1473.673c17.35,0 31.416,17.057 31.416,38.099 0,21.038 -14.066,38.095 -31.416,38.095 -17.349,0 -31.412,-17.057 -31.412,-38.095 0,-21.042 14.063,-38.099 31.412,-38.099zm1333.801 -913.445l167.831 0c90.328,0 164.23,-89.631 164.23,-199.188l0 0c0,-109.552 -73.902,-199.187 -164.23,-199.187l-1419.117 0c-146.266,0 -265.932,145.143 -265.932,322.537l0 0.007c0,177.394 119.666,322.536 265.932,322.54l0 0c61.843,0.002 112.439,61.372 112.439,136.38l0 0c0,75.007 -50.596,136.374 -112.439,136.374l-135.329 0c-64.296,0 -116.899,63.805 -116.899,141.791l0 0c0,77.983 52.603,141.788 116.899,141.788l171.127 0c25.03,0 45.509,24.843 45.509,55.203l0 0c0,30.358 -20.479,55.2 -45.509,55.2l-30.165 0c-17.278,0 -31.412,17.145 -31.412,38.099l0 0c0,20.952 14.139,38.095 31.412,38.095l113.055 0c0,0 43.202,0 84.887,0 41.685,0 46.328,-59.731 151.63,-59.731 162.778,0 81.391,0 244.169,0 22.543,0 40.986,-22.369 40.986,-49.71l0 0c0,-27.34 -18.443,-49.711 -40.986,-49.711l-39.36 0c-32.661,0 -59.392,-32.417 -59.392,-72.03l0 -0.007c0,-39.608 26.731,-72.025 59.392,-72.025l118.466 0c159.962,0 182.557,-50.701 210.575,-151.547 28.017,-100.839 173.52,-108.975 173.52,-108.975l198.953 0c49.224,0 89.497,-48.842 89.497,-108.542l0 0c0,-59.702 -40.273,-108.55 -89.497,-108.55l-10.242 0c-47.343,0 -86.081,-46.981 -86.081,-104.402l0 0c0,-57.429 38.738,-104.409 86.081,-104.409l0 0z"/>
  <path class="fil1" d="M1914.315 979.001c-12.948,0 -23.445,12.73 -23.445,28.433 0,15.702 10.497,28.431 23.445,28.431 12.948,0 23.444,-12.729 23.444,-28.431 0,-15.703 -10.496,-28.433 -23.444,-28.433zm-995.407 -681.697l-125.25 0c-67.412,0 -122.565,-66.892 -122.565,-148.654l0 0c0,-81.757 55.153,-148.65 122.565,-148.65l1059.077 0c109.156,0 198.463,108.319 198.463,240.707l0 0.005c0,132.387 -89.307,240.707 -198.463,240.709l0 0c-46.153,0.003 -83.913,45.802 -83.913,101.779l0 0c0,55.978 37.76,101.776 83.913,101.776l100.995 0c47.984,0 87.24,47.618 87.24,105.817l0 0c0,58.198 -39.256,105.816 -87.24,105.816l-127.712 0c-18.679,0 -33.963,18.54 -33.963,41.197l0 0c0,22.657 15.284,41.195 33.963,41.195l22.512 0c12.897,0 23.443,12.795 23.443,28.433l0 0c0,15.637 -10.551,28.431 -23.443,28.431l-84.371 0c0,0 -32.242,0 -63.351,0 -31.11,0 -34.574,-44.577 -113.16,-44.577 -121.482,0 -60.741,0 -182.222,0 -16.825,0 -30.588,-16.693 -30.588,-37.098l0 0c0,-20.404 13.763,-37.099 30.588,-37.099l29.374 0c24.375,0 44.323,-24.193 44.323,-53.756l0 -0.005c0,-29.559 -19.948,-53.751 -44.323,-53.751l-88.411 0c-119.378,0 -136.24,-37.839 -157.15,-113.099 -20.91,-75.256 -129.497,-81.328 -129.497,-81.328l-148.478 0c-36.735,0 -66.79,-36.45 -66.79,-81.004l0 0c0,-44.555 30.055,-81.01 66.79,-81.01l7.644 0c35.332,0 64.242,-35.062 64.242,-77.914l0 0c0,-42.859 -28.91,-77.92 -64.242,-77.92l0 0z"/>
  <path class="fil0" d="M2629.323 859.627c-10.945,0 -19.817,-10.76 -19.817,-24.034 0,-13.271 8.872,-24.03 19.817,-24.03 10.943,0 19.814,10.759 19.814,24.03 0,13.274 -8.871,24.034 -19.814,24.034zm-841.364 576.201l-105.868 0c-56.979,0 -103.596,56.539 -103.596,125.65l0 0c0,69.103 46.617,125.645 103.596,125.645l895.181 0c92.265,0 167.75,-91.556 167.75,-203.456l0 -0.004c0,-111.9 -75.485,-203.456 -167.75,-203.459l0 0c-39.01,-0.001 -70.927,-38.713 -70.927,-86.029l0 0c0,-47.314 31.917,-86.024 70.927,-86.024l85.366 0c40.558,0 73.739,-40.249 73.739,-89.443l0 0c0,-49.191 -33.181,-89.44 -73.739,-89.44l-107.947 0c-15.789,0 -28.708,-15.67 -28.708,-34.821l0 0c0,-19.15 12.919,-34.82 28.708,-34.82l19.028 0c10.899,0 19.814,-10.815 19.814,-24.034l0 0c0,-13.215 -8.919,-24.03 -19.814,-24.03l-71.315 0c0,0 -27.252,0 -53.548,0 -26.295,0 -29.224,37.679 -95.648,37.679 -102.68,0 -51.341,0 -154.022,0 -14.22,0 -25.854,14.11 -25.854,31.357l0 0c0,17.246 11.634,31.357 25.854,31.357l24.829 0c20.602,0 37.464,20.449 37.464,45.437l0 0.005c0,24.984 -16.862,45.432 -37.464,45.432l-74.729 0c-100.904,0 -115.156,31.983 -132.831,95.597 -17.674,63.61 -109.456,68.742 -109.456,68.742l-125.502 0c-31.049,0 -56.454,30.809 -56.454,68.469l0 0c0,37.658 25.405,68.473 56.454,68.473l6.462 0c29.864,0 54.3,29.635 54.3,65.856l0 0c0,36.227 -24.436,65.861 -54.3,65.861l0 0z"/>
 </g>
</svg>
