<?xml version="1.0" encoding="UTF-8"?>
<!DOCTYPE svg PUBLIC "-//W3C//DTD SVG 1.1//EN" "http://www.w3.org/Graphics/SVG/1.1/DTD/svg11.dtd">
<!-- Creator: CorelDRAW -->
<svg xmlns="http://www.w3.org/2000/svg" xml:space="preserve" width="214px" height="170px" version="1.1" style="shape-rendering:geometricPrecision; text-rendering:geometricPrecision; image-rendering:optimizeQuality; fill-rule:evenodd; clip-rule:evenodd"
viewBox="0 0 235.075 186.956"
 xmlns:xlink="http://www.w3.org/1999/xlink"
 xmlns:xodm="http://www.corel.com/coreldraw/odm/2003">
 <defs>
  <style type="text/css">
   <![CDATA[
    .str0 {stroke:white;stroke-width:2.198;stroke-miterlimit:22.9256}
    .str1 {stroke:white;stroke-width:2.198;stroke-linecap:round;stroke-miterlimit:22.9256}
    .str2 {stroke:white;stroke-width:2.198;stroke-linecap:round;stroke-linejoin:round;stroke-miterlimit:22.9256}
    .fil1 {fill:none}
    .fil0 {fill:#55C197}
    .fil2 {fill:#76D1A2}
    .fil3 {fill:white}
    .fil4 {fill:white;fill-rule:nonzero}
   ]]>
  </style>
 </defs>
 <g id="Layer_x0020_1">
  <metadata id="CorelCorpID_0Corel-Layer"/>
  <g id="_105553926979392">
   <rect class="fil0 str0" x="1.099" y="86.794" width="77.986" height="99.063" rx="8.431" ry="8.431"/>
   <line class="fil1 str1" x1="15.024" y1="106.374" x2="65.16" y2= "106.374" />
   <line class="fil1 str1" x1="15.024" y1="119.02" x2="40.092" y2= "119.02" />
   <line class="fil1 str1" x1="33.467" y1="136.014" x2="51.459" y2= "136.014" />
   <rect class="fil1 str2" x="15.363" y="131.995" width="8.036" height="8.036"/>
   <line class="fil1 str1" x1="33.467" y1="153.139" x2="65.686" y2= "153.139" />
   <rect class="fil1 str2" x="15.363" y="149.121" width="8.036" height="8.036"/>
  </g>
  <g id="_105553926965536">
   <g>
    <path class="fil2" d="M53.986 2.198l157.182 0c11.94,0 21.709,9.769 21.709,21.709l0 0c0,11.608 -9.233,21.163 -20.718,21.686 -1.371,10.575 -7.962,24.644 -33.69,22.892 0,0 16.307,-2.043 15.235,-22.869l-139.718 0c-11.94,0 -21.709,-9.769 -21.709,-21.709l0 0c0,-11.94 9.769,-21.709 21.709,-21.709z"/>
    <path id="1" class="fil3" d="M53.986 0l157.182 0c6.577,0 12.554,2.689 16.886,7.021 4.332,4.332 7.021,10.309 7.021,16.886 0,6.374 -2.53,12.187 -6.635,16.484 -3.728,3.902 -8.76,6.554 -14.38,7.24 -0.942,5.277 -3.19,11.116 -8.127,15.645 -5.437,4.989 -14.049,8.322 -27.611,7.399 -1.209,-0.081 -2.124,-1.127 -2.043,-2.336 0.072,-1.082 0.916,-1.928 1.959,-2.037 1.021,-0.154 13.173,-2.33 13.319,-18.487l-137.571 0c-6.577,0 -12.555,-2.689 -16.887,-7.021 -4.332,-4.332 -7.021,-10.31 -7.021,-16.887 0,-6.577 2.689,-12.554 7.021,-16.886 4.332,-4.332 10.31,-7.021 16.887,-7.021zm124.483 68.485c0,0 16.307,-2.043 15.235,-22.869l-139.718 0c-11.94,0 -21.709,-9.769 -21.709,-21.709l0 0c0,-11.94 9.769,-21.709 21.709,-21.709l157.182 0c11.94,0 21.709,9.769 21.709,21.709l0 0c0,11.608 -9.233,21.163 -20.718,21.686 -1.371,10.575 -7.962,24.644 -33.69,22.892z"/>
   </g>
   <path class="fil4" d="M85.177 28.835c0,-0.694 -0.247,-1.232 -0.739,-1.612 -0.493,-0.381 -1.389,-0.784 -2.665,-1.165 -1.277,-0.381 -2.307,-0.806 -3.068,-1.276 -1.456,-0.919 -2.172,-2.105 -2.172,-3.561 0,-1.276 0.515,-2.351 1.567,-3.18 1.053,-0.828 2.396,-1.254 4.076,-1.254 1.097,0 2.083,0.201 2.956,0.627 0.873,0.403 1.545,0.985 2.06,1.747 0.493,0.739 0.739,1.59 0.739,2.508l-2.754 0c0,-0.828 -0.269,-1.501 -0.784,-1.971 -0.515,-0.47 -1.277,-0.694 -2.239,-0.694 -0.896,0 -1.59,0.202 -2.106,0.582 -0.492,0.381 -0.739,0.918 -0.739,1.613 0,0.582 0.269,1.074 0.806,1.455 0.538,0.381 1.434,0.762 2.665,1.142 1.232,0.381 2.24,0.784 2.979,1.255 0.761,0.47 1.321,1.007 1.657,1.612 0.336,0.604 0.515,1.321 0.515,2.15 0,1.321 -0.515,2.373 -1.523,3.157 -1.008,0.784 -2.396,1.187 -4.143,1.187 -1.142,0 -2.194,-0.224 -3.157,-0.649 -0.963,-0.426 -1.724,-1.008 -2.262,-1.77 -0.537,-0.738 -0.806,-1.612 -0.806,-2.62l2.777 0c0,0.919 0.291,1.613 0.896,2.105 0.604,0.493 1.455,0.739 2.552,0.739 0.963,0 1.702,-0.201 2.173,-0.582 0.492,-0.38 0.739,-0.895 0.739,-1.545z"/>
   <path id="1" class="fil4" d="M105.119 17.011l0 10.637c0,1.68 -0.537,3.023 -1.612,4.031 -1.098,0.986 -2.531,1.478 -4.323,1.478 -1.813,0 -3.269,-0.492 -4.344,-1.455 -1.075,-0.986 -1.612,-2.33 -1.612,-4.054l0 -10.637 2.754 0 0 10.66c0,1.052 0.269,1.881 0.806,2.441 0.538,0.559 1.344,0.828 2.396,0.828 2.128,0 3.18,-1.119 3.18,-3.359l0 -10.57 2.755 0z"/>
   <path id="2" class="fil4" d="M117.029 26.797l-3.068 0 0 6.136 -2.777 0 0 -15.922 5.599 0c1.836,0 3.247,0.403 4.255,1.232 1.007,0.828 1.5,2.015 1.5,3.583 0,1.052 -0.246,1.948 -0.761,2.665 -0.515,0.716 -1.232,1.276 -2.15,1.657l3.561 6.651 0 0.134 -2.956 0 -3.203 -6.136zm-3.068 -2.217l2.844 0c0.919,0 1.658,-0.246 2.173,-0.717 0.537,-0.47 0.806,-1.097 0.806,-1.925 0,-0.851 -0.247,-1.501 -0.739,-1.971 -0.47,-0.47 -1.21,-0.694 -2.172,-0.716l-2.912 0 0 5.329z"/>
   <polygon id="3" class="fil4" points="133.684,29.462 137.714,17.011 140.76,17.011 135.027,32.933 132.362,32.933 126.652,17.011 129.675,17.011 "/>
   <polygon id="4" class="fil4" points="154.977,25.834 148.438,25.834 148.438,30.716 156.074,30.716 156.074,32.933 145.661,32.933 145.661,17.011 156.007,17.011 156.007,19.251 148.438,19.251 148.438,23.64 154.977,23.64 "/>
   <polygon id="5" class="fil4" points="166.63,24.558 170.303,17.011 173.348,17.011 168.019,27.066 168.019,32.933 165.241,32.933 165.241,27.066 159.889,17.011 162.98,17.011 "/>
   <path id="6" class="fil4" d="M186.349 28.835c0,-0.694 -0.247,-1.232 -0.739,-1.612 -0.493,-0.381 -1.389,-0.784 -2.665,-1.165 -1.277,-0.381 -2.307,-0.806 -3.068,-1.276 -1.456,-0.919 -2.172,-2.105 -2.172,-3.561 0,-1.276 0.515,-2.351 1.567,-3.18 1.053,-0.828 2.396,-1.254 4.076,-1.254 1.097,0 2.082,0.201 2.956,0.627 0.873,0.403 1.545,0.985 2.06,1.747 0.493,0.739 0.739,1.59 0.739,2.508l-2.754 0c0,-0.828 -0.269,-1.501 -0.784,-1.971 -0.515,-0.47 -1.277,-0.694 -2.24,-0.694 -0.895,0 -1.59,0.202 -2.105,0.582 -0.492,0.381 -0.739,0.918 -0.739,1.613 0,0.582 0.269,1.074 0.806,1.455 0.538,0.381 1.434,0.762 2.665,1.142 1.232,0.381 2.24,0.784 2.979,1.255 0.761,0.47 1.321,1.007 1.657,1.612 0.336,0.604 0.515,1.321 0.515,2.15 0,1.321 -0.515,2.373 -1.523,3.157 -1.008,0.784 -2.396,1.187 -4.143,1.187 -1.142,0 -2.194,-0.224 -3.157,-0.649 -0.963,-0.426 -1.725,-1.008 -2.262,-1.77 -0.537,-0.738 -0.806,-1.612 -0.806,-2.62l2.777 0c0,0.919 0.291,1.613 0.896,2.105 0.604,0.493 1.455,0.739 2.552,0.739 0.963,0 1.702,-0.201 2.173,-0.582 0.492,-0.38 0.739,-0.895 0.739,-1.545z"/>
  </g>
 </g>
</svg>
