<?xml version="1.0" encoding="UTF-8"?>
<!DOCTYPE svg PUBLIC "-//W3C//DTD SVG 1.1//EN" "http://www.w3.org/Graphics/SVG/1.1/DTD/svg11.dtd">
<!-- Creator: CorelDRAW -->
<svg xmlns="http://www.w3.org/2000/svg" xml:space="preserve" width="295px" height="88px" version="1.1" style="shape-rendering:geometricPrecision; text-rendering:geometricPrecision; image-rendering:optimizeQuality; fill-rule:evenodd; clip-rule:evenodd"
viewBox="0 0 79.421 23.799"
 xmlns:xlink="http://www.w3.org/1999/xlink"
 xmlns:xodm="http://www.corel.com/coreldraw/odm/2003">
 <defs>
  <style type="text/css">
   <![CDATA[
    .fil0 {fill:white}
   ]]>
  </style>
 </defs>
 <g id="Layer_x0020_1">
  <metadata id="CorelCorpID_0Corel-Layer"/>
  <g id="_105553925914880">
   <path class="fil0" d="M2.343 18.953c2.499,-0.502 7.51,-3.284 9.378,-5.169 0.198,-0.2 0.328,-0.293 0.535,-0.471 0.549,-0.471 2.071,-2.176 2.498,-2.724 0.588,-0.755 1.161,-1.549 1.704,-2.449 0.529,-0.88 0.986,-1.72 1.435,-2.718 0.347,-0.77 1.004,-2.263 1.143,-3.111 -0.222,-0.095 -0.528,-0.334 -0.774,-0.497 -0.773,-0.513 -1.835,-0.992 -2.743,-1.276 -3.792,-1.185 -8.343,-0.403 -11.301,2.259 -0.299,0.27 -0.402,0.302 -0.699,0.642 -0.388,0.443 -0.677,0.638 -1.215,1.396 -1.227,1.724 -2.007,3.539 -2.247,5.799 -0.281,2.641 0.488,6.09 2.117,8.136l0.169 0.183z"/>
   <path class="fil0" d="M2.821 19.54c0.063,0.168 -0.015,0.02 0.127,0.198l0.507 0.566c4.027,4.147 10.603,4.666 15.472,1.221 4.322,-3.058 6.05,-9.052 4.043,-14.04 -0.153,-0.382 -0.686,-1.59 -1.003,-1.906 0.221,1.462 0.465,2.211 0.161,3.817 -1.161,6.134 -7.257,7.237 -12.615,8.406 -1.146,0.25 -2.289,0.523 -3.421,0.799 -0.846,0.207 -2.528,0.603 -3.271,0.939z"/>
   <path class="fil0" d="M59.733 15.656c-4.358,0 -4.924,-5.437 -1.697,-7.054 1.432,-0.718 3.187,-0.293 4.022,0.712 2.281,2.744 0.427,6.342 -2.325,6.342zm-5.759 -2.946l0 8.236c0,0.4 0.939,0.268 1.54,0.268 0.559,0 0.403,-0.447 0.402,-1.004l0 -4.219c0.238,0.159 0.406,0.379 0.699,0.573 0.274,0.182 0.513,0.309 0.818,0.455 2.109,1.012 4.767,0.486 6.267,-1.213 0.76,-0.859 1.102,-1.64 1.331,-2.754 0.236,-1.143 0.055,-2.453 -0.41,-3.489 -2.011,-4.484 -8.559,-4.402 -10.303,0.477 -0.239,0.667 -0.344,1.77 -0.344,2.67z"/>
   <path class="fil0" d="M30.804 12.04c0,-1.086 0.443,-2.08 1.02,-2.663 2.428,-2.458 6.078,-0.696 6.078,2.663 0,4.855 -7.098,4.776 -7.098,0zm-2.009 0.871l0 8.035c0,0.409 1.027,0.268 1.674,0.268 0.397,0 0.268,-0.686 0.268,-1.071l0 -4.152c0.535,0.358 0.412,0.514 1.562,1.05 1.429,0.664 3.185,0.669 4.599,-0.045 3.657,-1.848 3.93,-6.557 1.456,-9.024 -0.534,-0.533 -0.908,-0.828 -1.634,-1.179 -2.242,-1.085 -4.919,-0.404 -6.535,1.414 -1.129,1.27 -1.39,2.921 -1.39,4.704z"/>
   <path class="fil0" d="M43.327 11.504c0.017,-0.789 0.505,-1.654 1.078,-2.203 2.003,-1.918 4.867,-1.144 5.932,1.153 0.097,0.211 0.133,0.396 0.222,0.582 -0.292,0.006 -0.524,0.1 -0.85,0.154 -1.064,0.178 -1.688,0.071 -2.77,-0.017 -0.869,-0.071 -1.976,-0.069 -2.756,0.116 -0.281,0.067 -0.604,0.194 -0.856,0.215zm-1.876 0.268c0,1.816 0.449,2.73 1.416,3.942 0.373,0.468 0.142,0.169 0.544,0.528 1.7,1.52 4.367,1.61 6.345,0.62 0.454,-0.226 1.807,-1.112 1.807,-1.675 0,-0.317 -1.606,-0.937 -1.607,-0.937 -0.277,0 -1.126,1.406 -2.946,1.406 -0.763,0 -1.697,-0.383 -2.173,-0.707 -0.422,-0.288 -1.193,-1.107 -1.243,-1.704 2.223,-1.066 4.819,0.881 8.306,-0.802 0.68,-0.328 0.634,-0.435 0.506,-1.313 -0.092,-0.638 -0.248,-1.099 -0.485,-1.591 -2.722,-5.654 -10.47,-3.321 -10.47,2.233z"/>
   <path class="fil0" d="M66.698 9.629c0,3.263 4.864,2.956 5.867,3.709 1.43,1.073 -0.407,3.202 -3.449,1.909 -0.218,-0.093 -0.475,-0.257 -0.669,-0.403 -0.952,-0.715 -0.589,-0.598 -1.789,0.304 -0.562,0.422 -0.224,0.62 0.048,0.834 0.185,0.145 0.225,0.212 0.446,0.358 1.123,0.744 1.993,1.191 3.631,1.191 5.163,0 5.716,-5.235 1.809,-6.229 -1.082,-0.276 -3.818,-0.484 -3.818,-1.673 0,-0.554 0.035,-0.835 0.671,-1.204 1.839,-1.066 3.651,0.602 3.882,0.602 0.239,0 0.589,-0.37 0.765,-0.508 0.608,-0.474 0.769,-0.677 0.261,-1.054 -3.257,-2.415 -7.655,-0.9 -7.655,2.164z"/>
   <path class="fil0" d="M77.211 7.085c0,1.424 -0.103,9.383 0.067,10.111 0.495,0.116 1.381,0.116 1.875,0 0.17,-0.73 0.067,-8.809 0.067,-10.245 0,-0.426 -0.856,-0.268 -1.741,-0.268 -0.206,0 -0.268,0.196 -0.268,0.402z"/>
   <path class="fil0" d="M76.943 4.205c0,0.44 0.001,0.735 0.415,1.125 0.845,0.797 2.063,0.019 2.063,-0.589l0 -0.737c0,-0.575 -1.186,-1.414 -2.063,-0.589 -0.161,0.151 -0.415,0.507 -0.415,0.79z"/>
  </g>
 </g>
</svg>
